<?xml version="1.0" encoding="UTF-8"?>
<svg version="1.1" xmlns="http://www.w3.org/2000/svg" width="2586" height="1314">
<path d="M0 0 C853.38 0 1706.76 0 2586 0 C2586 433.62 2586 867.24 2586 1314 C1732.62 1314 879.24 1314 0 1314 C0 880.38 0 446.76 0 0 Z " fill="#FEFEFE" transform="translate(0,0)"/>
<path d="M0 0 C41.25 0 82.5 0 125 0 C125 224.73 125 449.46 125 681 C84.74 681 44.48 681 3 681 C2.67 666.15 2.34 651.3 2 636 C-1.465 639.96 -1.465 639.96 -5 644 C-7.62373173 646.43961021 -10.23706202 648.73124605 -13 651 C-14.51400391 652.27037109 -14.51400391 652.27037109 -16.05859375 653.56640625 C-34.0356532 668.37902322 -55.12610876 678.63271053 -78 683 C-78.70325409 683.13510986 -79.40650818 683.27021973 -80.131073 683.40942383 C-92.84147275 685.78654778 -105.20951983 686.52816772 -118.125 686.4375 C-119.53249008 686.43243942 -119.53249008 686.43243942 -120.96841431 686.42727661 C-135.96919255 686.3494022 -150.36383269 685.55442487 -165 682 C-165.98871094 681.76394043 -166.97742187 681.52788086 -167.99609375 681.28466797 C-192.84809863 675.14685594 -215.47674176 664.67881002 -235 648 C-236.22976563 646.97132813 -236.22976563 646.97132813 -237.484375 645.921875 C-265.72575836 621.53956266 -280.41426938 582.1162531 -286 546 C-286.15710449 545.02627441 -286.31420898 544.05254883 -286.47607422 543.04931641 C-287.02191426 539.63948183 -287.5449465 536.22673724 -288.0625 532.8125 C-288.22508301 531.78253906 -288.38766602 530.75257813 -288.55517578 529.69140625 C-289.12140985 525.80207518 -289.58704181 521.90800442 -290 518 C-290.09107025 517.14015503 -290.1821405 516.28031006 -290.27597046 515.39440918 C-292.83440006 489.62219192 -292.26716492 463.68564912 -292.19561768 437.82110596 C-292.18478333 432.88805614 -292.18515012 427.95503423 -292.18575573 423.02197456 C-292.18548106 418.19490813 -292.17995369 413.36785884 -292.17275429 408.54079819 C-292.16962457 406.2711182 -292.16761396 404.00143632 -292.16686058 401.7317543 C-292.1532104 382.13085325 -291.89787323 362.49513391 -289.6875 343 C-289.55778809 341.83412354 -289.42807617 340.66824707 -289.29443359 339.46704102 C-283.81751994 292.17315148 -269.77240581 242.90453474 -231 212 C-208.14512149 194.7045918 -182.03384101 185.05628729 -154 180 C-153.06430176 179.81381104 -152.12860352 179.62762207 -151.16455078 179.43579102 C-141.72388643 177.72821066 -132.36342132 177.66178574 -122.80126953 177.68432617 C-120.03246776 177.68746321 -117.26476255 177.66402959 -114.49609375 177.63867188 C-97.95764662 177.57854108 -81.3251292 178.96472674 -65.5 184.0625 C-64.55842041 184.35922607 -63.61684082 184.65595215 -62.64672852 184.96166992 C-39.2293624 192.65145041 -20.43195023 204.97451322 -3.375 222.6875 C-2.01378527 224.11564313 -2.01378527 224.11564313 0 225 C0 150.75 0 76.5 0 0 Z " fill="#000000" transform="translate(1475,317)"/>
<path d="M0 0 C1.02048431 0.00337372 2.04096863 0.00674744 3.09237671 0.01022339 C19.27256661 0.08738989 34.91282687 0.84369954 50.75 4.4375 C51.83958008 4.68419434 52.92916016 4.93088867 54.05175781 5.18505859 C91.02718571 13.85167328 122.96258323 30.52640398 150.75 56.4375 C151.85988281 57.46617187 151.85988281 57.46617187 152.9921875 58.515625 C188.25061199 92.39382647 203.59985883 139.74739049 208.52059937 187.24060059 C208.67982015 188.76540912 208.84550061 190.28955151 209.01626587 191.81311035 C211.13431431 211.06053782 211.02239956 230.28009018 210.94561768 249.61395264 C210.93477973 253.04990804 210.93519969 256.48582441 210.93560982 259.92179394 C210.9345296 303.83369518 210.9345296 303.83369518 208 325.625 C207.86928604 326.60356461 207.86928604 326.60356461 207.7359314 327.60189819 C201.405774 374.6485247 186.12677979 415.51634467 153.07080078 450.04931641 C151.9672682 451.20914751 150.88517557 452.3893289 149.80859375 453.57421875 C125.53294554 479.4791051 89.69308161 495.23052548 55.75 503.1875 C54.56168579 503.46762939 54.56168579 503.46762939 53.34936523 503.75341797 C36.75961956 507.39710557 20.31399659 508.93732987 3.34863281 508.82861328 C0.38299335 508.81254331 -2.58127644 508.82857071 -5.546875 508.84765625 C-55.98996121 508.90381245 -107.02163285 492.36891573 -144.25 457.4375 C-144.87181152 456.85806641 -145.49362305 456.27863281 -146.13427734 455.68164062 C-175.8918426 427.67281305 -193.55159585 393.13129575 -202.25 353.4375 C-202.40742676 352.72352051 -202.56485352 352.00954102 -202.72705078 351.27392578 C-206.38158059 334.4927534 -207.81388168 317.7286766 -208.875 300.625 C-208.9407019 299.57893585 -209.00640381 298.5328717 -209.07409668 297.45510864 C-209.97624158 282.92405252 -210.70179722 268.47608082 -210.33691406 253.91308594 C-210.27193464 251.31463929 -210.21667527 248.71695587 -210.17089844 246.11816406 C-209.81197523 225.8490835 -209.24322883 205.62353266 -207.25 185.4375 C-207.16024902 184.51227539 -207.07049805 183.58705078 -206.97802734 182.63378906 C-202.84179109 142.28556501 -189.38009165 101.27810152 -162.25 70.4375 C-161.55519531 69.633125 -160.86039063 68.82875 -160.14453125 68 C-118.96049927 21.18973414 -61.714632 -0.39999931 0 0 Z " fill="#000000" transform="translate(922.25,494.5625)"/>
<path d="M0 0 C0.82741699 0.13390137 1.65483398 0.26780273 2.50732422 0.40576172 C46.66676494 7.73752638 85.23536636 31.12562006 116 63 C111.64304101 68.21063922 107.0641384 73.07416581 102.25048828 77.86303711 C101.49858719 78.61508423 100.7466861 79.36713135 99.97200012 80.14196777 C97.507136 82.60613996 95.03875789 85.06675951 92.5703125 87.52734375 C90.85231025 89.24347927 89.13452988 90.95983694 87.41696167 92.67640686 C82.91143139 97.17813208 78.40290529 101.67684517 73.89373779 106.17492676 C69.28671199 110.77169509 64.68254087 115.37132077 60.078125 119.97070312 C51.05486698 128.98325932 42.02853652 137.99273182 33 147 C29.17701241 145.23015435 26.90586059 143.01200429 24 139.9375 C5.21151893 120.66117099 -17.72410945 110.09645356 -44.50732422 109.70703125 C-67.92461906 109.59065756 -87.86050716 113.05280454 -106 129 C-106.73347656 129.59167969 -107.46695313 130.18335938 -108.22265625 130.79296875 C-132.02940911 150.59790038 -140.84741467 183.31259847 -144.17700195 212.85961914 C-145.33282859 225.56497569 -145.2918633 238.31449401 -145.3125 251.0625 C-145.31617584 252.15951233 -145.31985168 253.25652466 -145.32363892 254.38677979 C-145.3469664 267.73733318 -144.82635876 280.77210527 -143 294 C-142.87971436 294.95543701 -142.75942871 295.91087402 -142.63549805 296.89526367 C-138.7902712 326.80358885 -127.75605958 356.36732985 -103.4375 375.625 C-86.15353467 387.98631698 -69.37282831 392.3221988 -48.3125 392.4375 C-46.37105103 392.45296875 -46.37105103 392.45296875 -44.39038086 392.46875 C-14.59478776 392.19593475 8.11409154 377.9001475 28.625 357.4375 C29.800625 356.2309375 29.800625 356.2309375 31 355 C34.48654476 356.4841373 36.64191072 358.46214052 39.25 361.1875 C41.81141524 363.8564199 44.41232388 366.36413513 47.23925781 368.74365234 C54.07968926 374.70932815 60.37927101 381.25679884 66.78125 387.68359375 C68.20449244 389.10870413 69.62795794 390.53359176 71.05163574 391.95826721 C74.77574302 395.68617009 78.49683584 399.41706756 82.21728516 403.14862061 C86.02323076 406.9648443 89.83205245 410.77819517 93.640625 414.59179688 C101.09654981 422.05840678 108.54928963 429.528187 116 437 C115.04808028 438.11538211 114.09547263 439.23017712 113.14257812 440.34472656 C112.61216919 440.96559143 112.08176025 441.5864563 111.53527832 442.22613525 C78.9655274 479.85731404 27.11785227 500.89640215 -21.58496094 504.72900391 C-30.2305726 505.31893686 -38.90063955 505.30463038 -47.5625 505.3125 C-48.44316132 505.31590393 -49.32382263 505.31930786 -50.23117065 505.32281494 C-62.28620134 505.34949251 -74.05461244 504.61596849 -86 503 C-87.03713135 502.864729 -88.0742627 502.72945801 -89.14282227 502.59008789 C-111.37402911 499.50501379 -132.9022021 492.99963964 -153 483 C-153.6496875 482.68063477 -154.299375 482.36126953 -154.96875 482.03222656 C-200.67231082 459.34169864 -232.56832172 419.95549438 -251 373 C-251.2769873 372.29488281 -251.55397461 371.58976562 -251.83935547 370.86328125 C-259.5173669 350.95954611 -263.94576427 330.07422656 -267 309 C-267.19335938 307.72253906 -267.38671875 306.44507813 -267.5859375 305.12890625 C-274.13522768 259.52116811 -273.5271081 208.1077535 -261.62792969 163.38232422 C-261.00080166 161.00304146 -260.42139471 158.61624575 -259.8515625 156.22265625 C-252.52165756 126.05440881 -239.61850206 98.76322221 -221 74 C-220.34 73.113125 -219.68 72.22625 -219 71.3125 C-204.17804078 52.32186475 -185.82858094 36.95247865 -165 25 C-163.93523437 24.36835937 -162.87046875 23.73671875 -161.7734375 23.0859375 C-141.41565412 11.55139207 -118.82244772 4.67102162 -96 0 C-95.06736328 -0.19207031 -94.13472656 -0.38414062 -93.17382812 -0.58203125 C-63.64505864 -6.2664821 -29.54965716 -5.09018462 0 0 Z " fill="#000000" transform="translate(586,498)"/>
<path d="M0 0 C41.25 0 82.5 0 125 0 C125 48.51 125 97.02 125 147 C153.71 147 182.42 147 212 147 C212 178.02 212 209.04 212 241 C183.29 241 154.58 241 125 241 C125.061442 272.64432701 125.13353467 304.28854649 125.22898628 335.93278362 C125.24025381 339.67263666 125.25139237 343.41249008 125.26245117 347.15234375 C125.2657567 348.2691027 125.2657567 348.2691027 125.269129 349.40842244 C125.30445638 361.44744361 125.32934621 373.48646473 125.35034702 385.52551845 C125.37214546 397.88795339 125.40523412 410.25032135 125.44870156 422.61269927 C125.47514879 430.23476699 125.4928951 437.85675131 125.49934604 445.47886261 C125.50524675 451.33341804 125.52689124 457.18785055 125.55427551 463.04234695 C125.56304347 465.43677836 125.56678091 467.83123451 125.56500816 470.2256813 C125.31651264 493.71120684 125.31651264 493.71120684 136.5234375 513.7109375 C154.75062075 531.22681603 193.13193291 524.60691527 212 525 C212 559.65 212 594.3 212 630 C199.00625 630.0825 186.0125 630.165 172.625 630.25 C168.58072754 630.28641602 164.53645508 630.32283203 160.36962891 630.36035156 C114.32915672 630.60196548 72.27636948 623.17137227 38 590 C34.76279454 586.48943052 31.83820343 582.83757084 29 579 C28.41089844 578.236875 27.82179688 577.47375 27.21484375 576.6875 C16.31527209 561.98921658 8.77680255 544.64477681 4.25 527 C3.95174316 525.84504028 3.95174316 525.84504028 3.64746094 524.66674805 C-0.23884478 508.59657394 -0.27782213 492.7795861 -0.22705078 476.33813477 C-0.2264858 473.76452641 -0.22680492 471.19091774 -0.22793579 468.61730957 C-0.22897797 463.10415753 -0.22277177 457.5910533 -0.21146011 452.07791328 C-0.19511669 444.10711816 -0.18998813 436.13634586 -0.18748413 428.1655358 C-0.1831208 415.22940338 -0.16984892 402.29329638 -0.15087891 389.35717773 C-0.13248467 376.80053839 -0.11834557 364.24390598 -0.10986328 351.68725586 C-0.10907511 350.52375837 -0.10907511 350.52375837 -0.10827102 349.33675588 C-0.1056607 345.44497284 -0.10313334 341.55318976 -0.10064721 337.66140664 C-0.07995718 305.44091523 -0.04311052 273.22047114 0 241 C-17.16 241 -34.32 241 -52 241 C-52 209.98 -52 178.96 -52 147 C-34.84 147 -17.68 147 0 147 C0 98.49 0 49.98 0 0 Z " fill="#000000" transform="translate(1917,368)"/>
<path d="M0 0 C41.25 0 82.5 0 125 0 C125 164.34 125 328.68 125 498 C83.75 498 42.5 498 0 498 C0 333.66 0 169.32 0 0 Z " fill="#010101" transform="translate(1691,500)"/>
<path d="M0 0 C1.85625 -0.01160156 1.85625 -0.01160156 3.75 -0.0234375 C24.07550448 0.01935304 42.65217827 5.67063672 57.953125 19.55078125 C89.53582919 51.65002499 87.8145107 100.47790155 87.8125 142.3125 C87.81340637 143.54021118 87.81431274 144.76792236 87.81524658 146.03283691 C87.81199957 184.96969315 87.81199957 184.96969315 84.875 204 C84.61384399 205.7181189 84.61384399 205.7181189 84.34741211 207.47094727 C82.90928427 216.43217448 80.83967808 224.75969993 77.625 233.25 C77.24601563 234.30832031 76.86703125 235.36664062 76.4765625 236.45703125 C69.33986941 255.11301756 55.7004229 269.57649101 37.67578125 278.00390625 C25.11500699 283.13436334 13.9332596 284.44528204 0.5 284.5 C-1.36398437 284.5309375 -1.36398437 284.5309375 -3.265625 284.5625 C-21.24716043 284.63757948 -36.38149731 279.52078497 -50.375 268.25 C-51.15746094 267.64414062 -51.93992187 267.03828125 -52.74609375 266.4140625 C-73.05909339 249.72712692 -80.32011043 221.12536613 -83.10888672 196.05834961 C-84.64761805 179.81979314 -84.59519 163.54102366 -84.61523438 147.24536133 C-84.6195821 144.23351687 -84.63335377 141.22196484 -84.65625 138.21020508 C-84.77693686 121.97960587 -84.53473992 105.89503729 -83.00390625 89.7265625 C-82.88142517 88.42992172 -82.75894409 87.13328094 -82.63275146 85.79734802 C-81.54794017 75.32092801 -79.66283465 65.25978472 -76.375 55.25 C-76.14941406 54.56180176 -75.92382812 53.87360352 -75.69140625 53.16455078 C-69.09740446 33.7504311 -55.8913051 16.67073102 -37.44042969 7.26367188 C-25.0279372 1.50228439 -13.58427682 -0.08437439 0 0 Z " fill="#FEFEFE" transform="translate(921.375,606.75)"/>
<path d="M0 0 C16.66869697 14.10671508 24.39069971 33.69212648 28.75 54.5625 C29.04813599 55.95529175 29.04813599 55.95529175 29.35229492 57.3762207 C33.61497819 79.35105642 33.37627067 101.90539978 33.37060547 124.19580078 C33.37044328 127.5130807 33.38431191 130.82980618 33.41162109 134.14697266 C33.62870923 160.94482092 32.84469788 187.69367486 25 213.5625 C24.71640625 214.58214844 24.4328125 215.60179687 24.140625 216.65234375 C18.7222272 234.73743465 8.17553987 250.49591559 -8 260.5625 C-20.87787878 267.09120914 -33.47762985 269.76222455 -47.79785156 269.80273438 C-49.8344214 269.81230922 -51.86992219 269.84330618 -53.90625 269.875 C-66.15388798 269.9764705 -78.44243523 268.79460745 -89.375 262.8125 C-90.37358032 262.2875293 -90.37358032 262.2875293 -91.39233398 261.75195312 C-111.24714487 251.04134669 -121.33740679 232.50197597 -127.9296875 211.6171875 C-134.97088242 185.55750732 -135.35151759 157.92550427 -135.26074219 131.13330078 C-135.24934865 127.7421962 -135.25613464 124.35140579 -135.26762581 120.96031189 C-135.33038651 99.07369492 -134.94311688 77.04896186 -130.41650391 55.55419922 C-129.98690378 53.49987458 -129.59373646 51.44022552 -129.19921875 49.37890625 C-126.10754966 34.07532011 -120.22427237 19.52106709 -110 7.5625 C-109.39800781 6.84964844 -108.79601563 6.13679687 -108.17578125 5.40234375 C-99.49919621 -4.03821733 -88.3510265 -9.53981434 -76 -12.4375 C-75.29939453 -12.61337646 -74.59878906 -12.78925293 -73.87695312 -12.97045898 C-48.90643832 -18.71030851 -20.81168421 -15.3142582 0 0 Z " fill="#FEFEFE" transform="translate(1442,621.4375)"/>
<path d="M0 0 C8.91 0 17.82 0 27 0 C27 224.73 27 449.46 27 681 C18.09 681 9.18 681 0 681 C0 456.27 0 231.54 0 0 Z " fill="#000000" transform="translate(2242,317)"/>
<path d="M0 0 C42.24 0 84.48 0 128 0 C128 32.67 128 65.34 128 99 C85.76 99 43.52 99 0 99 C0 66.33 0 33.66 0 0 Z " fill="#020202" transform="translate(1689,317)"/>
</svg>
