<?xml version="1.0" encoding="UTF-8"?>
<svg version="1.1" xmlns="http://www.w3.org/2000/svg" width="297" height="170">
<path d="M0 0 C98.01 0 196.02 0 297 0 C297 56.1 297 112.2 297 170 C198.99 170 100.98 170 0 170 C0 113.9 0 57.8 0 0 Z " fill="#FEFEFE" transform="translate(0,0)"/>
<path d="M0 0 C1.44826172 -0.02126953 1.44826172 -0.02126953 2.92578125 -0.04296875 C5.83315824 0.19965536 7.22696811 0.67420525 9.6875 2.1875 C11.11621094 3.95239258 11.11621094 3.95239258 12.421875 6.08203125 C12.90994629 6.86698975 13.39801758 7.65194824 13.90087891 8.46069336 C14.40796387 9.29866455 14.91504883 10.13663574 15.4375 11 C16.22713135 12.27919312 16.22713135 12.27919312 17.03271484 13.58422852 C18.09407866 15.30582735 19.15125708 17.03001394 20.20410156 18.75683594 C21.51823989 20.91015411 22.8445743 23.05496258 24.1796875 25.1953125 C29.51230902 33.76492471 29.51230902 33.76492471 31.6875 38.1875 C31.68226318 37.07189697 31.67702637 35.95629395 31.67163086 34.80688477 C31.65358225 30.68270667 31.64206851 26.55853209 31.63256836 22.43432617 C31.62752782 20.64655979 31.62069546 18.85879755 31.61206055 17.07104492 C31.5999827 14.50698832 31.59426906 11.94298603 31.58984375 9.37890625 C31.58468246 8.5747377 31.57952118 7.77056915 31.57420349 6.94203186 C31.57400785 5.02348285 31.62548017 3.10504632 31.6875 1.1875 C32.6875 0.1875 32.6875 0.1875 34.9375 0.0546875 C35.845 0.05726562 36.7525 0.05984375 37.6875 0.0625 C39.04875 0.05863281 39.04875 0.05863281 40.4375 0.0546875 C42.6875 0.1875 42.6875 0.1875 43.6875 1.1875 C43.78618509 2.83941396 43.81548837 4.49553217 43.81689453 6.15039062 C43.82004669 7.20818726 43.82319885 8.26598389 43.82644653 9.35583496 C43.8244223 10.50684692 43.82239807 11.65785889 43.8203125 12.84375 C43.82126923 14.01635376 43.82222595 15.18895752 43.82321167 16.39709473 C43.8238937 18.88208062 43.82203784 21.36706829 43.81787109 23.85205078 C43.81252319 27.67093887 43.81781536 31.48970935 43.82421875 35.30859375 C43.82355797 37.71614609 43.82227682 40.12369837 43.8203125 42.53125 C43.82233673 43.68226196 43.82436096 44.83327393 43.82644653 46.01916504 C43.82171829 47.60585999 43.82171829 47.60585999 43.81689453 49.22460938 C43.81609894 50.16091187 43.81530334 51.09721436 43.81448364 52.06188965 C43.6875 54.1875 43.6875 54.1875 42.6875 55.1875 C40.140625 55.4609375 40.140625 55.4609375 36.9375 55.5625 C35.89078125 55.61148438 34.8440625 55.66046875 33.765625 55.7109375 C29.72280192 55.02345236 28.05985726 53.33954632 25.6875 50.1875 C23.28310879 46.73469958 21.03716565 43.19562135 18.8125 39.625 C18.19552246 38.64515137 17.57854492 37.66530273 16.94287109 36.65576172 C12.71522343 29.91407589 8.58236747 23.12797812 4.6875 16.1875 C4.84976074 16.85426758 5.01202148 17.52103516 5.17919922 18.20800781 C5.78755381 21.77398258 5.83084335 25.25468029 5.8203125 28.859375 C5.82126923 29.58239807 5.82222595 30.30542114 5.82321167 31.050354 C5.82388931 32.5698658 5.82206417 34.08938056 5.81787109 35.60888672 C5.81248558 37.94375001 5.81784605 40.27842366 5.82421875 42.61328125 C5.82355851 44.09114626 5.82227846 45.56901115 5.8203125 47.046875 C5.82233673 47.74786316 5.82436096 48.44885132 5.82644653 49.17108154 C5.80247315 54.07252685 5.80247315 54.07252685 4.6875 55.1875 C3.02320949 55.28573937 1.35468069 55.31723631 -0.3125 55.3125 C-1.67375 55.31636719 -1.67375 55.31636719 -3.0625 55.3203125 C-5.3125 55.1875 -5.3125 55.1875 -6.3125 54.1875 C-6.41118509 52.53558604 -6.44048837 50.87946783 -6.44189453 49.22460938 C-6.44504669 48.16681274 -6.44819885 47.10901611 -6.45144653 46.01916504 C-6.44841019 44.29264709 -6.44841019 44.29264709 -6.4453125 42.53125 C-6.44626923 41.35864624 -6.44722595 40.18604248 -6.44821167 38.97790527 C-6.4488937 36.49291938 -6.44703784 34.00793171 -6.44287109 31.52294922 C-6.43752319 27.70406113 -6.44281536 23.88529065 -6.44921875 20.06640625 C-6.44855797 17.65885391 -6.44727682 15.25130163 -6.4453125 12.84375 C-6.44733673 11.69273804 -6.44936096 10.54172607 -6.45144653 9.35583496 C-6.44829437 8.29803833 -6.44514221 7.2402417 -6.44189453 6.15039062 C-6.44109894 5.21408813 -6.44030334 4.27778564 -6.43948364 3.31311035 C-6.18963979 -0.86908717 -3.60902439 0.02390082 0 0 Z " fill="#FF6D07" transform="translate(77.3125,57.8125)"/>
<path d="M0 0 C4.79583673 -1.46313663 9.37082699 -2.21911675 14 0 C19.55570472 5.44071133 23.31450734 12.58007888 27.28076172 19.20507812 C29.56148363 22.91278963 32.10649858 26.35918683 34.75 29.8125 C38.78015423 35.19634563 42.53347099 40.72941902 46.1875 46.375 C46.66993164 47.11983643 47.15236328 47.86467285 47.64941406 48.63208008 C51 53.865066 51 53.865066 51 55 C48.72975032 55.08097324 46.45867925 55.13917704 44.1875 55.1875 C42.29064453 55.23970703 42.29064453 55.23970703 40.35546875 55.29296875 C37 55 37 55 35.43164062 53.71875 C33.96001201 51.95199259 32.84890998 50.21903982 31.73828125 48.20703125 C31.14370117 47.1387207 31.14370117 47.1387207 30.53710938 46.04882812 C30.13298828 45.31083984 29.72886719 44.57285156 29.3125 43.8125 C28.89677734 43.06291016 28.48105469 42.31332031 28.05273438 41.54101562 C27.03062275 39.69651534 26.0147019 37.8485869 25 36 C24.34 36 23.68 36 23 36 C21.90233711 37.81951089 21.90233711 37.81951089 20.890625 40.15625 C14.15779681 53.97053598 14.15779681 53.97053598 10.11376953 55.89990234 C5.97738639 56.6659758 2.03501332 56.0072807 -2 55 C2.3605913 44.90979455 8.81909768 36.03146892 15 27 C12.80752182 23.10052095 10.55870972 19.25260673 8.203125 15.44921875 C7.47802734 14.27842773 7.47802734 14.27842773 6.73828125 13.08398438 C5.73299018 11.46522828 4.72511043 9.84807737 3.71484375 8.23242188 C3.23660156 7.45833984 2.75835937 6.68425781 2.265625 5.88671875 C1.61255371 4.83810669 1.61255371 4.83810669 0.94628906 3.76831055 C0 2 0 2 0 0 Z " fill="#55575B" transform="translate(175,58)"/>
<path d="M0 0 C0.9075 0.00257812 1.815 0.00515625 2.75 0.0078125 C4.11125 0.00394531 4.11125 0.00394531 5.5 0 C7.75 0.1328125 7.75 0.1328125 8.75 1.1328125 C8.85095564 3.78737443 8.88970998 6.41536426 8.8828125 9.0703125 C8.88376923 9.8655835 8.88472595 10.66085449 8.88571167 11.48022461 C8.88639343 13.1648771 8.88453943 14.84953221 8.88037109 16.53417969 C8.87502275 19.12180447 8.88031619 21.70925566 8.88671875 24.296875 C8.88605797 25.92968789 8.8847768 27.56250066 8.8828125 29.1953125 C8.88483673 29.97447021 8.88686096 30.75362793 8.88894653 31.55639648 C8.86495105 37.01786145 8.86495105 37.01786145 7.75 38.1328125 C6.08570949 38.23105187 4.41718069 38.26254881 2.75 38.2578125 C1.38875 38.26167969 1.38875 38.26167969 0 38.265625 C-2.25 38.1328125 -2.25 38.1328125 -3.25 37.1328125 C-3.35095564 34.47825057 -3.38970998 31.85026074 -3.3828125 29.1953125 C-3.38376923 28.4000415 -3.38472595 27.60477051 -3.38571167 26.78540039 C-3.38639343 25.1007479 -3.38453943 23.41609279 -3.38037109 21.73144531 C-3.37502275 19.14382053 -3.38031619 16.55636934 -3.38671875 13.96875 C-3.38605797 12.33593711 -3.3847768 10.70312434 -3.3828125 9.0703125 C-3.38483673 8.29115479 -3.38686096 7.51199707 -3.38894653 6.70922852 C-3.36034036 0.19835342 -3.36034036 0.19835342 0 0 Z " fill="#525458" transform="translate(161.25,74.8671875)"/>
<path d="M0 0 C3.29057603 0.02870732 6.39836821 0.2540536 9.64453125 0.78125 C8.34661763 4.26299753 6.82467443 7.29740907 4.82421875 10.42578125 C4.28925781 11.26689453 3.75429687 12.10800781 3.203125 12.97460938 C2.36974609 14.27108398 2.36974609 14.27108398 1.51953125 15.59375 C0.95621094 16.47740234 0.39289063 17.36105469 -0.1875 18.27148438 C-1.57310049 20.44382413 -2.96251509 22.61362083 -4.35546875 24.78125 C-7.00298879 22.20340154 -9.2997894 19.86476902 -11.35546875 16.78125 C-10.60941996 10.1815876 -6.7124658 1.56285583 0 0 Z " fill="#54565A" transform="translate(214.35546875,57.21875)"/>
<path d="M0 0 C3.64581687 -0.02887512 7.29160463 -0.04675585 10.9375 -0.0625 C12.49887695 -0.07506836 12.49887695 -0.07506836 14.09179688 -0.08789062 C15.57583008 -0.09272461 15.57583008 -0.09272461 17.08984375 -0.09765625 C18.46450806 -0.10551147 18.46450806 -0.10551147 19.86694336 -0.11352539 C22 0 22 0 23 1 C23.1328125 2.8125 23.1328125 2.8125 23.125 5 C23.12886719 6.0828125 23.12886719 6.0828125 23.1328125 7.1875 C23 9 23 9 22 10 C20.45044441 10.09899523 18.89646327 10.13079524 17.34375 10.1328125 C15.93416016 10.13474609 15.93416016 10.13474609 14.49609375 10.13671875 C13.50738281 10.13285156 12.51867187 10.12898438 11.5 10.125 C10.51128906 10.12886719 9.52257812 10.13273437 8.50390625 10.13671875 C7.56417969 10.13542969 6.62445313 10.13414063 5.65625 10.1328125 C4.78806641 10.13168457 3.91988281 10.13055664 3.02539062 10.12939453 C1 10 1 10 0 9 C-0.07179964 7.48071962 -0.08392007 5.95832518 -0.0625 4.4375 C-0.05347656 3.61121094 -0.04445313 2.78492187 -0.03515625 1.93359375 C-0.02355469 1.29550781 -0.01195313 0.65742187 0 0 Z " fill="#595B5E" transform="translate(128,85)"/>
<path d="M0 0 C1.38125018 2.76250036 1.19079306 4.94731099 1 8 C-1 10 -1 10 -4.5 10.25 C-8 10 -8 10 -10 8 C-10.32954432 4.90228335 -10.45334601 2.82668977 -8.9375 0.0625 C-5.81857551 -1.64787795 -3.34442199 -0.80513863 0 0 Z " fill="#54565A" transform="translate(168,58)"/>
<path d="M0 0 C0.66 0 1.32 0 2 0 C2.0246501 5.10863896 2.04283607 10.21724359 2.05493164 15.32592773 C2.05997204 17.06519168 2.0668043 18.80445136 2.07543945 20.54370117 C2.08751792 23.03825937 2.09323108 25.53276173 2.09765625 28.02734375 C2.10281754 28.80963852 2.10797882 29.59193329 2.11329651 30.39793396 C2.11349226 32.26567114 2.06199694 34.13329204 2 36 C1 37 1 37 -1.28515625 37.09765625 C-2.65994141 37.08025391 -2.65994141 37.08025391 -4.0625 37.0625 C-4.98160156 37.05347656 -5.90070313 37.04445312 -6.84765625 37.03515625 C-7.55792969 37.02355469 -8.26820313 37.01195312 -9 37 C-9.33 36.34 -9.66 35.68 -10 35 C-6.7 35 -3.4 35 0 35 C0 23.45 0 11.9 0 0 Z " fill="#737477" transform="translate(168,76)"/>
</svg>
